<?xml version="1.0" encoding="UTF-8" standalone="no"?>
<!-- Created with Inkscape (http://www.inkscape.org/) -->

<svg
   xmlns:dc="http://purl.org/dc/elements/1.1/"
   xmlns:cc="http://creativecommons.org/ns#"
   xmlns:rdf="http://www.w3.org/1999/02/22-rdf-syntax-ns#"
   xmlns:svg="http://www.w3.org/2000/svg"
   xmlns="http://www.w3.org/2000/svg"
   version="1.2"
   width="10000"
   height="10000"
   id="svg2">
  <defs
     id="defs4" />
  <metadata
     id="metadata7">
    <rdf:RDF>
      <cc:Work
         rdf:about="">
        <dc:format>image/svg+xml</dc:format>
        <dc:type
           rdf:resource="http://purl.org/dc/dcmitype/StillImage" />
        <dc:title></dc:title>
      </cc:Work>
    </rdf:RDF>
  </metadata>
  <g
     transform="translate(0,-292.36218)"
     id="layer1">
    <g
       transform="translate(413.55033,-40.120555)"
       id="flowRoot2985">
      <path
         d="m 194.76825,987.02083 c 11.01928,-6.6115 24.24242,-19.83469 24.24242,-33.05784 0,-11.01928 -11.01928,-24.24242 -19.83471,-33.05785 L 0.8288525,731.37346 271.90323,689.50018 c 22.03853,-2.20386 41.87329,-6.61157 41.87329,-26.44628 0,-8.81543 -4.40772,-19.83471 -6.61158,-28.65014 L 263.08781,499.96851 c -6.61157,-19.83471 -13.22319,-35.26171 -28.65014,-35.26171 -11.01928,0 -22.03857,6.61157 -30.85399,11.01928 L -41.044427,605.75362 5.2365685,334.67925 c 2.20385,-11.01928 2.20385,-15.427 2.20385,-24.24243 0,-24.24237 -24.2424685,-24.24242 -44.0771315,-24.24242 l -143.250687,0 c -19.83471,0 -44.07713,5e-5 -44.07713,24.24242 0,8.81543 0,13.22315 2.20385,24.24243 l 46.28099,271.07437 -244.6281,-130.02754 c -8.81543,-4.40771 -19.83471,-11.01928 -30.854,-11.01928 -15.42699,0 -22.03856,15.427 -28.65013,35.26171 l -44.07714,134.43525 c -2.20385,8.81543 -6.61157,19.83471 -6.61157,28.65014 0,19.83471 19.83471,24.24242 41.87328,26.44628 l 271.07438,41.87328 -198.34711,189.53168 c -8.81543,8.81543 -19.83471,22.03857 -19.83471,33.05785 0,13.22315 13.22314,26.44634 24.24242,33.05784 l 114.60056,81.54267 c 11.01928,8.8155 22.03857,17.6309 33.05785,17.6309 13.22314,0 19.83471,-6.6116 30.85399,-30.854 L -109.36398,808.50845 16.255849,1055.3404 c 11.01929,24.2424 17.63086,30.854 30.854,30.854 11.01928,0 22.03856,-8.8154 33.05785,-17.6309 L 194.76825,987.02083"
         id="path2994"
         style="opacity:0.3;fill:#ffffff;" />
    </g>
  </g>
</svg>
